<?xml version="1.0" encoding="utf-8"?>
<!-- Generator: Adobe Illustrator 24.0.1, SVG Export Plug-In . SVG Version: 6.00 Build 0)  -->
<svg version="1.1" id="Layer_1" xmlns="http://www.w3.org/2000/svg" xmlns:xlink="http://www.w3.org/1999/xlink" x="0px" y="0px"
	 viewBox="0 0 48 48" style="enable-background:new 0 0 48 48;" xml:space="preserve">
<style type="text/css">
	.st0{fill:#FFFFFF;}
</style>
<path class="st0" d="M22,35h4.1V21.9H22V35z M24,18.9c0.7,0,1.3-0.2,1.8-0.7c0.5-0.5,0.7-1,0.7-1.7c0-0.8-0.2-1.4-0.7-1.9
	c-0.5-0.4-1-0.7-1.8-0.7c-0.8,0-1.4,0.2-1.8,0.6c-0.4,0.4-0.6,1-0.6,1.8c0,0.7,0.2,1.3,0.7,1.8C22.7,18.7,23.3,18.9,24,18.9z
	 M24,46.1c-3,0-5.9-0.6-8.6-1.7c-2.7-1.1-5-2.7-7-4.7s-3.6-4.4-4.7-7c-1.1-2.7-1.7-5.6-1.7-8.6c0-3,0.6-5.9,1.7-8.6
	c1.1-2.7,2.7-5,4.7-7c2-2,4.4-3.6,7-4.7s5.5-1.7,8.6-1.7c3.1,0,5.9,0.6,8.6,1.7c2.7,1.1,5,2.7,7,4.7c2,2,3.6,4.4,4.7,7.1
	c1.2,2.7,1.7,5.6,1.7,8.6c0,3.1-0.6,5.9-1.7,8.6c-1.2,2.7-2.7,5-4.7,7c-2,2-4.4,3.6-7,4.7C29.9,45.5,27,46.1,24,46.1z M24,41.3
	c4.8,0,8.8-1.7,12.2-5.1c3.4-3.4,5.1-7.5,5.1-12.3c0-4.8-1.7-8.8-5.1-12.2C32.9,8.4,28.8,6.7,24,6.7c-4.8,0-8.8,1.7-12.2,5.1
	C8.4,15.1,6.7,19.2,6.7,24c0,4.8,1.7,8.8,5.1,12.2C15.1,39.6,19.2,41.3,24,41.3z"/>
</svg>
