<?xml version="1.0" encoding="utf-8"?>
<!-- Generator: Adobe Illustrator 24.0.1, SVG Export Plug-In . SVG Version: 6.00 Build 0)  -->
<svg version="1.1" id="Layer_1" xmlns="http://www.w3.org/2000/svg" xmlns:xlink="http://www.w3.org/1999/xlink" x="0px" y="0px"
	 viewBox="0 0 48 48" style="enable-background:new 0 0 48 48;" xml:space="preserve">
<style type="text/css">
	.st0{fill:#FFFFFF;}
</style>
<path class="st0" d="M1.6,38v-2.6H25V38C25,38,1.6,38,1.6,38z M1.6,25.9v-2.5h11.1v2.5H1.6z M1.6,13.9v-2.6h11.1v2.6H1.6z
	 M44.6,38.1L35,28.5c-0.9,0.7-1.9,1.3-3,1.7c-1.1,0.4-2.2,0.6-3.3,0.6c-2.9,0-5.3-1-7.4-3c-2-2-3-4.5-3-7.4c0-2.9,1-5.3,3-7.4
	c2-2,4.5-3,7.4-3c2.9,0,5.3,1,7.4,3c2,2,3.1,4.5,3.1,7.4c0,1.2-0.2,2.3-0.6,3.4c-0.4,1.1-0.9,2.1-1.7,3l9.5,9.5L44.6,38.1z
	 M28.7,28.2c2.2,0,4-0.8,5.6-2.3c1.5-1.5,2.3-3.4,2.3-5.6c0-2.2-0.8-4.1-2.3-5.6c-1.5-1.5-3.4-2.3-5.6-2.3c-2.2,0-4,0.8-5.6,2.3
	c-1.5,1.5-2.3,3.4-2.3,5.5c0,2.2,0.8,4,2.3,5.6C24.6,27.4,26.5,28.2,28.7,28.2z"/>
</svg>
