<?xml version="1.0" encoding="utf-8"?>
<!-- Generator: Adobe Illustrator 24.0.1, SVG Export Plug-In . SVG Version: 6.00 Build 0)  -->
<svg version="1.1" id="Layer_1" xmlns="http://www.w3.org/2000/svg" xmlns:xlink="http://www.w3.org/1999/xlink" x="0px" y="0px"
	 viewBox="0 0 48 48" style="enable-background:new 0 0 48 48;" xml:space="preserve">
<path d="M19.4,26.3h-15c-1.3,0-2.3-1-2.3-2.3v0c0-1.3,1-2.3,2.3-2.3h15c1.3,0,2.3-1,2.3-2.3v-15c0-1.3,1-2.3,2.3-2.3h0
	c1.3,0,2.3,1,2.3,2.3v15c0,1.3,1,2.3,2.3,2.3h14.9c1.3,0,2.3,1,2.3,2.3v0c0,1.3-1,2.3-2.3,2.3H28.7c-1.3,0-2.3,1-2.3,2.3v14.9
	c0,1.3-1,2.3-2.3,2.3h0c-1.3,0-2.3-1-2.3-2.3l0-14.9C21.7,27.3,20.7,26.3,19.4,26.3z"/>
</svg>
