<?xml version="1.0" encoding="utf-8"?>
<!-- Generator: Adobe Illustrator 24.0.1, SVG Export Plug-In . SVG Version: 6.00 Build 0)  -->
<svg version="1.1" id="Layer_1" xmlns="http://www.w3.org/2000/svg" xmlns:xlink="http://www.w3.org/1999/xlink" x="0px" y="0px"
	 viewBox="0 0 800 800" style="enable-background:new 0 0 800 800;" xml:space="preserve">
<style type="text/css">
	.st0{fill-rule:evenodd;clip-rule:evenodd;fill:#FFFFFF;}
</style>
<title>basket_fill</title>
<path id="形状" class="st0" d="M339.1,62.5c30.4-36.4,85.2-38,117.7-4.8l4.3,4.8l156.1,187.3h118.5c34.9,0,62.9,30.1,58.9,65.7
	L791,346l0,0l-4,29.4l0,0l-3.3,22l0,0L780,421l0,0l-4.3,24.8l0,0l-4.8,25.7l0,0l-5.4,26.3c-2.8,13.2-5.9,26.5-9.2,39.6
	c-9.5,37.9-21.3,72.7-33.1,102.6l-8.8,21.4l0,0l-8.5,19.4l0,0l-8,17.2c-1.3,2.7-2.5,5.3-3.7,7.7l-9.9,19.4l0,0
	c-12.7,24.2-36.7,38.5-62.1,40.6l-6.4,0.3h-432c-27.2,0-53.9-14.1-67.8-40l-9.3-17.9l0,0l-7.1-14.7c-1.2-2.6-2.5-5.3-3.8-8.1
	l-7.9-17.8c-14.8-34.5-31.2-78.8-44-130.1c-2.2-8.7-4.2-17.4-6.2-26l-5.6-25.7l0,0l-5-25.2l0,0l-4.5-24.4l0,0l-4-23.3l0,0l-3.4-22
	l0,0l-3-20.4l0,0l-3.6-27.1l0,0L6,321.4c-0.2-2.1-0.5-4.2-0.7-6.1c-3.6-33.7,21.4-62.2,53.5-65.1l5.4-0.2h118.6L339.1,62.5z
	 M319.1,437.3c-5.5-19.1-24.6-31.5-44.7-28.1c-20.1,3.3-34.1,21.2-33.1,41.1l0.5,4.6L261.6,574l1,4.5c5.5,19.1,24.6,31.5,44.7,28.1
	c20.1-3.3,34.1-21.2,33.1-41.1L340,561l-19.9-119.1L319.1,437.3z M525.7,409.2c-20.1-3.3-39.2,9-44.7,28.1l-1,4.5L460.2,561
	c-3.6,21.6,11,42.1,32.6,45.7c20.1,3.3,39.2-9,44.7-28.1l1-4.5L558.4,455C561.9,433.3,547.3,412.8,525.7,409.2z M400.1,113.4
	L286.3,249.9h227.5L400.1,113.4z"/>
</svg>
