<?xml version="1.0" encoding="utf-8"?>
<!-- Generator: Adobe Illustrator 24.0.1, SVG Export Plug-In . SVG Version: 6.00 Build 0)  -->
<svg version="1.1" id="Layer_1" xmlns="http://www.w3.org/2000/svg" xmlns:xlink="http://www.w3.org/1999/xlink" x="0px" y="0px"
	 viewBox="0 0 48 48" style="enable-background:new 0 0 48 48;" xml:space="preserve">
<path d="M24.7,17.7v-6.6H18V8.7h6.7V2.1H27v6.6h6.6v2.4H27v6.6C27,17.7,24.7,17.7,24.7,17.7z M15.2,45.9c-1,0-1.8-0.3-2.4-1
	c-0.7-0.7-1-1.5-1-2.5c0-0.9,0.3-1.7,1-2.4c0.7-0.7,1.5-1,2.5-1c1,0,1.8,0.3,2.4,1c0.7,0.7,1,1.5,1,2.4c0,0.9-0.3,1.8-1,2.4
	C17,45.6,16.2,45.9,15.2,45.9z M36.2,45.9c-1,0-1.8-0.3-2.4-1c-0.6-0.7-1-1.5-1-2.5c0-0.9,0.3-1.7,1-2.4c0.7-0.7,1.5-1,2.4-1
	s1.8,0.3,2.4,1c0.7,0.7,1,1.5,1,2.4c0,0.9-0.3,1.8-1,2.4C38,45.6,37.2,45.9,36.2,45.9z M3.4,6.6V4.2h5.5l9.2,19.2h14.8
	c0.3,0,0.5-0.1,0.7-0.2c0.2-0.1,0.4-0.3,0.5-0.5l7.9-14h2.7l-8.4,15.4c-0.3,0.5-0.8,1-1.3,1.4C34.3,25.8,33.7,26,33,26h-16l-2.6,4.8
	c-0.2,0.3-0.2,0.7,0,1.1c0.2,0.4,0.5,0.6,1,0.6h24.3v2.4H15c-1.3,0-2.2-0.5-2.8-1.5c-0.6-1-0.6-2.1-0.1-3.1l3.4-6.2L7.4,6.6H3.4z"/>
</svg>
