<?xml version="1.0" encoding="utf-8"?>
<!-- Generator: Adobe Illustrator 24.0.1, SVG Export Plug-In . SVG Version: 6.00 Build 0)  -->
<svg version="1.1" id="Layer_1" xmlns="http://www.w3.org/2000/svg" xmlns:xlink="http://www.w3.org/1999/xlink" x="0px" y="0px"
	 viewBox="0 0 48 48" style="enable-background:new 0 0 48 48;" xml:space="preserve">
<style type="text/css">
	.st0{fill:#FFFFFF;}
</style>
<path class="st0" d="M20,14v-2.4h11.7V14H20z M14.9,45.5c-1,0-1.8-0.3-2.5-1c-0.7-0.7-1-1.5-1-2.5c0-1,0.3-1.8,1-2.5
	c0.7-0.7,1.5-1,2.5-1c1,0,1.8,0.3,2.5,1c0.7,0.7,1,1.5,1,2.5c0,1-0.3,1.8-1,2.5C16.8,45.1,15.9,45.5,14.9,45.5z M36.6,45.5
	c-1,0-1.8-0.3-2.5-1c-0.7-0.7-1-1.5-1-2.5c0-1,0.3-1.8,1-2.5c0.7-0.7,1.5-1,2.5-1c1,0,1.8,0.3,2.5,1c0.7,0.7,1,1.5,1,2.5
	c0,1-0.3,1.8-1,2.5C38.4,45.1,37.6,45.5,36.6,45.5z M2.8,5V2.5h5.7l9.4,19.8h15.2c0.3,0,0.5-0.1,0.7-0.2c0.2-0.1,0.4-0.3,0.5-0.5
	l8.1-14.4h2.8L36.5,23c-0.3,0.5-0.8,1-1.4,1.4c-0.6,0.4-1.2,0.6-1.8,0.6H16.9l-2.7,4.9c-0.2,0.3-0.2,0.7,0,1.1
	c0.2,0.4,0.5,0.6,1,0.6h25V34H14.7c-1.3,0-2.3-0.5-2.9-1.6c-0.6-1.1-0.7-2.1-0.1-3.2l3.5-6.4L7,5H2.8z"/>
</svg>
