<?xml version="1.0" encoding="utf-8"?>
<!-- Generator: Adobe Illustrator 24.0.1, SVG Export Plug-In . SVG Version: 6.00 Build 0)  -->
<svg version="1.1" id="Layer_1" xmlns="http://www.w3.org/2000/svg" xmlns:xlink="http://www.w3.org/1999/xlink" x="0px" y="0px"
	 viewBox="0 0 800 800" style="enable-background:new 0 0 800 800;" xml:space="preserve">
<style type="text/css">
	.st0{fill:#FFFFFF;}
</style>
<g>
	<path class="st0" d="M254.6,772c-45.1,0-81.8-36.7-81.8-81.8c0-45.1,36.7-81.8,81.8-81.8s81.8,36.7,81.8,81.8
		C336.4,735.3,299.7,772,254.6,772z M254.6,662.9c-15,0-27.3,12.2-27.3,27.3s12.2,27.3,27.3,27.3s27.3-12.2,27.3-27.3
		S269.6,662.9,254.6,662.9z"/>
	<path class="st0" d="M581.8,772c-45.1,0-81.8-36.7-81.8-81.8c0-45.1,36.7-81.8,81.8-81.8c45.1,0,81.8,36.7,81.8,81.8
		C663.6,735.3,626.9,772,581.8,772z M581.8,662.9c-15,0-27.3,12.2-27.3,27.3c0,15,12.2,27.3,27.3,27.3c15,0,27.3-12.2,27.3-27.3
		C609.1,675.2,596.8,662.9,581.8,662.9z"/>
	<path class="st0" d="M572.4,572c-15.1,0-27.3-12.2-27.3-27.3c0-15.1,12.2-27.3,27.3-27.3c52.3,0,75.9-0.4,88-10.2
		c12-9.8,17.2-32.9,27.8-84.1l18.2-88.1c9.9-49.5,16.4-82.3,8-93.6c-0.7-0.6-6.9-5.6-33.5-8.3c-21.6-2.2-48.8-2.2-77.6-2.2H382.7
		c-15.1,0-27.3-12.2-27.3-27.3c0-15.1,12.2-27.3,27.3-27.3h220.5c72.5,0,129.8,0,154.2,31.6c23.7,30.8,16.1,68.8,2.3,137.8l0,0.2
		l-18.2,88.2c-12.3,59.9-19.1,92.9-46.7,115.4C667.2,572,633.5,572,572.4,572z M418.2,572h-38.6c-105.6,0-163.8,0-203.4-41.7
		c-39.7-41.9-41.3-87-41.3-194.2v-99c0-48.9-0.4-71-8.8-83.3c-8.2-12-26.6-18.8-71-34.4l-9.5-3.3c-14.2-5-21.7-20.6-16.7-34.8
		c5-14.2,20.6-21.7,34.8-16.7l9.5,3.3c51.2,18,79.4,27.9,98,55.1c10.4,15.2,14.9,31.7,16.8,53.5h48.5c15.1,0,27.3,12.2,27.3,27.3
		c0,15.1-12.2,27.3-27.3,27.3h-47c0,2,0,4,0,6.1v99c0,104.5,2.4,131.5,26.3,156.7c22.5,23.8,64,24.7,163.8,24.7h38.6
		c15.1,0,27.3,12.2,27.3,27.3C445.5,559.8,433.3,572,418.2,572z"/>
</g>
</svg>
