<?xml version="1.0" encoding="utf-8"?>
<!-- Generator: Adobe Illustrator 24.0.1, SVG Export Plug-In . SVG Version: 6.00 Build 0)  -->
<svg version="1.1" id="Layer_1" xmlns="http://www.w3.org/2000/svg" xmlns:xlink="http://www.w3.org/1999/xlink" x="0px" y="0px"
	 viewBox="0 0 48 48" style="enable-background:new 0 0 48 48;" xml:space="preserve">
<style type="text/css">
	.st0{fill:#FFFFFF;}
</style>
<path class="st0" d="M24.8,19.4l-2.9-2.8l3.8-3.8h-9V8.8h9L22,5.1l2.8-2.9l8.5,8.6L24.8,19.4z M15.2,45.8c-1,0-1.8-0.3-2.5-1
	c-0.7-0.7-1-1.5-1-2.5c0-1,0.3-1.8,1-2.5c0.7-0.7,1.5-1,2.5-1c1,0,1.8,0.3,2.5,1c0.7,0.7,1,1.5,1,2.5c0,1-0.3,1.8-1,2.5
	C17,45.4,16.2,45.8,15.2,45.8z M35.3,45.8c-1,0-1.8-0.3-2.5-1c-0.7-0.7-1-1.5-1-2.5c0-1,0.3-1.8,1-2.5c0.7-0.7,1.5-1,2.5-1
	c1,0,1.8,0.3,2.5,1c0.7,0.7,1,1.5,1,2.5c0,1-0.3,1.8-1,2.5S36.3,45.8,35.3,45.8z M3.4,8.9v-4h6.7l8.2,17.6h14.2l7.7-13.4h4.5
	l-8.2,15.2c-0.4,0.7-1,1.2-1.6,1.7c-0.6,0.4-1.4,0.7-2.2,0.7H17.9l-2.6,4.8h24v3.9H14.9c-1.5,0-2.6-0.6-3.3-1.8
	c-0.8-1.2-0.8-2.3-0.1-3.5l3.1-5.6L7.4,8.9H3.4z"/>
</svg>
