<?xml version="1.0" encoding="utf-8"?>
<!-- Generator: Adobe Illustrator 24.0.1, SVG Export Plug-In . SVG Version: 6.00 Build 0)  -->
<svg version="1.1" id="Layer_1" xmlns="http://www.w3.org/2000/svg" xmlns:xlink="http://www.w3.org/1999/xlink" x="0px" y="0px"
	 viewBox="0 0 48 48" style="enable-background:new 0 0 48 48;" xml:space="preserve">
<path d="M16.5,34.8l7.5-7.6l7.5,7.6l2.3-2.4l-7.5-7.6l7.5-7.6l-2.3-2.4L24,22.5l-7.5-7.6l-2.4,2.4l7.5,7.6l-7.5,7.6
	C14.1,32.5,16.5,34.8,16.5,34.8z M10.9,46.1c-1,0-1.9-0.4-2.6-1.1c-0.7-0.7-1.1-1.6-1.1-2.6V6.9H4.4v-3h11.2V2.1h16.8v1.8h11.2v3
	h-2.6v35.5c0,1-0.4,1.9-1.1,2.6c-0.7,0.7-1.6,1.1-2.6,1.1C37.1,46.1,10.9,46.1,10.9,46.1z M37.9,6.9H10.1v35.5
	c0,0.2,0.1,0.4,0.3,0.6c0.2,0.2,0.4,0.3,0.6,0.3h26.3c0.2,0,0.4-0.1,0.6-0.3c0.2-0.2,0.3-0.4,0.3-0.6C37.9,42.4,37.9,6.9,37.9,6.9z
	 M10.1,6.9v36.3V6.9z"/>
</svg>
