<?xml version="1.0" encoding="utf-8"?>
<!-- Generator: Adobe Illustrator 24.0.1, SVG Export Plug-In . SVG Version: 6.00 Build 0)  -->
<svg version="1.1" id="Capa_1" xmlns="http://www.w3.org/2000/svg" xmlns:xlink="http://www.w3.org/1999/xlink" x="0px" y="0px"
	 viewBox="0 0 800 800" style="enable-background:new 0 0 800 800;" xml:space="preserve">
<style type="text/css">
	.st0{fill:#FFFFFF;}
</style>
<path class="st0" d="M40.2,631.6h-0.9L25.5,407H0v224.6v14v28.1V800h25.5l7.4-84.2h124.6l10.4,84.2h14.6v-91.2v-35.1v-42.1h-35.4
	H40.2z M155.7,701.8H34.1l2.5-28.1h115.7L155.7,701.8z"/>
<path class="st0" d="M757.1,631.6h-0.9H649.4h-45.9v42.1V800h25.1l10.4-84.2h124.6L771,800h29V673.7v-28.1v-14V407h-29L757.1,631.6z
	 M762.4,701.7H640.7l3.5-28.1h115.7L762.4,701.7z"/>
<path class="st0" d="M687.7,521v-45.4c0-6.8-5.5-12.4-12.4-12.4H124.6c-6.8,0-12.4,5.5-12.4,12.4V521c0,6.8,5.5,12.4,12.4,12.4
	h156.1v28.1h56.1v209c0,0.5,0.1,1,0.2,1.6h-56.3V800h84.2h70.2h84.2v-28.1H463c0-0.5,0.2-1,0.2-1.6v-209h56.1v-28.1h156.1
	C682.2,533.3,687.7,527.8,687.7,521z"/>
<path class="st0" d="M337.9,0v148.2H331c-8.3,27.7-19.9,51.1-19.9,88.8c0,33.6,13.3,62.4,16.5,79.1h36.1c6.4-19,14-46.6,14-79.1
	c0-37.7-9-61.1-17.3-88.8h-8.6V0H337.9z"/>
<path class="st0" d="M434.7,0v65.2h-6.2c-8.7,27.7-17.9,53.6-17.9,93.2c0,41.7,13,66.1,16.3,83.6h35.8c6.8-19.9,15.1-49.5,15.1-83.6
	c0-39.5-9.8-65.5-18.5-93.2h-10.8V0H434.7z"/>
</svg>
