<?xml version="1.0" encoding="utf-8"?>
<!-- Generator: Adobe Illustrator 24.0.1, SVG Export Plug-In . SVG Version: 6.00 Build 0)  -->
<svg version="1.1" id="Layer_1" xmlns="http://www.w3.org/2000/svg" xmlns:xlink="http://www.w3.org/1999/xlink" x="0px" y="0px"
	 viewBox="0 0 100 100" style="enable-background:new 0 0 100 100;" xml:space="preserve">
<style type="text/css">
	.st0{fill:#333333;}
</style>
<path class="st0" d="M76.4,53.6L76.4,53.6L76.4,53.6L76.4,53.6z M76.4,53.6L76.4,53.6L76.4,53.6L76.4,53.6L76.4,53.6L76.4,53.6z
	 M76,57.2c0.9-0.5,1.6-1.2,1.7-2.3c0.1-0.5-0.1-1.2-0.6-1.3c-0.3-0.1-0.5,0-0.7,0.1c0,0,0,0.1,0,0.1l0,0C76.3,54.8,76.2,56,76,57.2z
	 M91.9,49.2c1.5,10.5-9.4,19.6-19.4,19.1C71,71,69.2,73.6,67,75.9c3.6,0.8,7.3,2,9.6,4.9c2.9,3.6,1.7,8.2-2.4,10.2
	c-2.4,1.1-5,1.6-7.7,2c-3.3,0.4-6.3,0.9-9.8,1.2c-9.1,0.8-18.2,0.3-27.2-0.5c-2.4-0.2-4.7-0.4-7.1-0.7c-2.1-0.2-4.2-0.4-6.3-1.1
	C12.7,90.6,8,88.1,8,83.8c0-3.8,4.1-6.4,7.4-7c1.2-0.2,2.4-0.3,3.6-0.3c-3.5-3.5-6.3-7.6-8-12.3c-2.6-7.3-2.7-15.5-0.1-22.8
	c-0.3-1.2,0.4-2.6,1.9-2.6c19.6,0,39.2,0,58.8,0c0.8,0,1.3,0.3,1.6,0.8c0.4,0.2,0.8,0.6,1,1.2c0.1,0.3,0.2,0.7,0.4,1
	c2.2-2,5.3-3,8.4-2.5C87.9,40.1,91.2,44.6,91.9,49.2z M63.1,79.3c-11.2,8.4-27,9.5-38.9,1.5c-0.2-0.2-0.5-0.3-0.7-0.5
	c-1.2-0.1-2.6,0.2-3.8,0.3c-1.4,0.1-2.8,0-4.2,0.4c-1.4,0.4-3.3,1.3-3.5,2.9c-0.1,0.7,1,1.5,1.5,1.9c0.7,0.6,1.4,1.1,2.2,1.4
	c4.2,1.6,8.7,1.7,13.1,2.1c9,0.8,18.2,1.4,27.2,0.6c3.2-0.3,6.4-0.7,9.5-1.2c2.4-0.3,5.1-0.6,7.1-1.9c0.7-0.5,1.4-1,1.3-1.8
	c-0.1-1.5-1.4-2.6-2.6-3.3C69,80.4,66,79.8,63.1,79.3z M70.7,43c-18.6,0-37.3,0-55.9,0c-2.6,7.9-2.1,16.9,2.1,24.2
	c2.1,3.6,4.9,6.8,8.2,9.3c0.6,0.1,1,0.5,1.2,0.9c1.8,1.2,3.7,2.2,5.8,3c7.3,2.7,15.7,2.6,22.8-0.8c6.3-3,11.6-8.1,14.6-14.5
	C72.7,58.1,73,50.2,70.7,43z M87.9,50.9c-0.1-3-1.7-6.6-4.9-7.3c-2.5-0.6-5.7,0.4-6.6,3c-0.1,0.3-0.2,0.5-0.4,0.7
	c0.1,0.7,0.2,1.5,0.3,2.2c2.2-0.3,4.5,0.8,5.3,3.2c1.6,4.7-2.5,8.2-6.6,9.4c-0.2,0.8-0.5,1.5-0.7,2.2C80.8,63.9,88.1,57.6,87.9,50.9
	z M76.4,53.6L76.4,53.6C76.4,53.6,76.4,53.6,76.4,53.6L76.4,53.6z M23.4,51.3c0.9-2.5-3.1-3.6-4-1.1c-2.1,6.1-0.2,13.3,4.7,17.6
	c2,1.7,5-1.2,2.9-2.9C23.1,61.4,21.7,56.1,23.4,51.3z M32.2,69.6c-1.1,0-2.1,0.9-2.1,2.1c0,0.1,0,0.2,0,0.3c0,1.1,0.9,2.1,2.1,2.1
	c1.1,0,2.1-0.9,2.1-2.1c0-0.1,0-0.2,0-0.3C34.3,70.6,33.3,69.6,32.2,69.6z M35.1,15.1c0.3,2.6-0.5,4.7-1.6,7
	c-1.2,2.4-1.7,4.9-0.9,7.5c0.7,2.4,2.6,4.6,4.9,5.6c1,0.4,2.2,0.3,2.8-0.7c0.5-0.9,0.3-2.4-0.7-2.8c-1.8-0.8-3.1-2.3-3.2-4.4
	c-0.2-2.5,1.9-4.8,2.5-7.1c1.4-4.9-0.2-10.4-3.8-13.9c-1.9-1.9-4.8,1-2.9,2.9C33.8,10.7,34.8,12.8,35.1,15.1z M48.6,34.9
	c0.9,0.7,2.1,0.9,2.9,0c0.7-0.7,0.9-2.2,0-2.9c-1.2-1-2.5-2-2.9-3.6c-0.3-1.3,1.8-3.3,2.4-4.3c2-3.4,1.1-7.7,0.2-11.3
	c-0.6-2.6-4.6-1.5-4,1.1c0.5,1.9,0.9,3.8,0.8,5.8c-0.1,2.1-1.5,3.5-2.5,5.1C42.9,28.7,45.5,32.4,48.6,34.9z"/>
</svg>
