<?xml version="1.0" encoding="utf-8"?>
<!-- Generator: Adobe Illustrator 24.0.1, SVG Export Plug-In . SVG Version: 6.00 Build 0)  -->
<svg version="1.1" id="Icons" xmlns="http://www.w3.org/2000/svg" xmlns:xlink="http://www.w3.org/1999/xlink" x="0px" y="0px"
	 viewBox="0 0 800 800" style="enable-background:new 0 0 800 800;" xml:space="preserve">
<style type="text/css">
	.st0{fill:#FFFFFF;}
</style>
<circle class="st0" cx="400" cy="345.1" r="27.4"/>
<g>
	<path class="st0" d="M358.9,756.6c-38.4,0-68.6-30.2-68.6-68.6c0-21.9-19.2-41.1-41.1-41.1H43.4c-16.5,0-27.4-11-27.4-27.4v-82.3
		c0-16.5,11-27.4,27.4-27.4h524c5.5-21.9,19.2-41.1,35.7-57.6c24.7-21.9,57.6-30.2,90.5-24.7l0,0c43.9,8.2,79.6,43.9,87.8,87.8
		c5.5,32.9-2.7,65.8-24.7,90.5c-19.2,27.4-49.4,41.1-82.3,41.1H468.6c-21.9,0-41.1,19.2-41.1,41.1
		C427.5,726.4,397.3,756.6,358.9,756.6z"/>
</g>
<g>
	<g>
		<path class="st0" d="M358.9,756.6c-38.4,0-68.6-30.2-68.6-68.6c0-21.9-19.2-41.1-41.1-41.1H43.4c-16.5,0-27.4-11-27.4-27.4v-82.3
			c0-16.5,11-27.4,27.4-27.4h524c5.5-21.9,19.2-41.1,35.7-57.6c24.7-21.9,57.6-30.2,90.5-24.7l0,0c43.9,8.2,79.6,43.9,87.8,87.8
			c5.5,32.9-2.7,65.8-24.7,90.5c-19.2,27.4-49.4,41.1-82.3,41.1H468.6c-21.9,0-41.1,19.2-41.1,41.1
			C427.5,726.4,397.3,756.6,358.9,756.6z"/>
		<path class="st0" d="M531.7,454.9c8.2-16.5,21.9-30.2,35.7-43.9c8.2-8.2,16.5-13.7,27.4-19.2c-30.2-90.5-87.8-170.1-167.3-224.9
			l-13.7-11c-11-8.2-24.7-5.5-35.7,2.7L87.3,454.9H531.7z M400,262.8c46.6,0,82.3,35.7,82.3,82.3s-35.7,82.3-82.3,82.3
			s-82.3-35.7-82.3-82.3S353.4,262.8,400,262.8z M262.9,372.6c16.5,0,27.4,11,27.4,27.4s-11,27.4-27.4,27.4
			c-16.5,0-27.4-11-27.4-27.4S246.4,372.6,262.9,372.6z"/>
		<path class="st0" d="M460.4,122.9C548.2,186,614,273.8,646.9,375.3c19.2-2.7,38.4-2.7,54.9,0c24.7,5.5,46.6,13.7,65.8,27.4
			C734.7,265.6,655.2,144.9,540,62.6l-16.5-13.7c-5.5-2.7-11-5.5-16.5-5.5c-43.9,0-82.3,21.9-107,54.9c16.5,0,32.9,5.5,49.4,13.7
			L460.4,122.9z"/>
	</g>
</g>
</svg>
