<?xml version="1.0" encoding="utf-8"?>
<!-- Generator: Adobe Illustrator 24.0.1, SVG Export Plug-In . SVG Version: 6.00 Build 0)  -->
<svg version="1.1" id="Layer_1" xmlns="http://www.w3.org/2000/svg" xmlns:xlink="http://www.w3.org/1999/xlink" x="0px" y="0px"
	 viewBox="0 0 48 48" style="enable-background:new 0 0 48 48;" xml:space="preserve">
<path d="M24,21.7c2.4,0,4.4-0.8,6.1-2.5c1.7-1.6,2.5-3.6,2.5-6V7H15.3v6.2c0,2.4,0.8,4.4,2.5,6C19.6,20.9,21.6,21.7,24,21.7z
	 M7.1,44.9V41h4.3v-6.3c0-2.3,0.6-4.4,1.8-6.3c1.2-1.9,2.9-3.4,4.9-4.4c-2.1-1-3.7-2.5-4.9-4.4c-1.2-1.9-1.8-4-1.8-6.3V7H7.1V3.1
	h33.7V7h-4.3v6.2c0,2.3-0.6,4.4-1.8,6.3c-1.2,1.9-2.9,3.4-4.9,4.4c2.1,1,3.7,2.5,4.9,4.4c1.2,1.9,1.8,4,1.8,6.3V41h4.3v3.9
	C40.9,44.9,7.1,44.9,7.1,44.9z"/>
</svg>
