<?xml version="1.0" encoding="utf-8"?>
<!-- Generator: Adobe Illustrator 24.0.1, SVG Export Plug-In . SVG Version: 6.00 Build 0)  -->
<svg version="1.1" id="Layer_1" xmlns="http://www.w3.org/2000/svg" xmlns:xlink="http://www.w3.org/1999/xlink" x="0px" y="0px"
	 viewBox="0 0 800 800" style="enable-background:new 0 0 800 800;" xml:space="preserve">
<style type="text/css">
	.st0{fill:none;stroke:#FFFFFF;stroke-width:72.2143;stroke-linecap:round;stroke-linejoin:round;stroke-miterlimit:128;}
	.st1{fill:none;}
	.st2{fill:none;stroke:#FFFFFF;stroke-width:48.1429;stroke-linecap:round;stroke-miterlimit:128;}
</style>
<path class="st0" d="M544.4,63H255.6C149.2,63,63,149.2,63,255.6v288.9C63,650.8,149.2,737,255.6,737h288.9
	C650.8,737,737,650.8,737,544.4V255.6C737,149.2,650.8,63,544.4,63z"/>
<path class="st0" d="M400,544.4c-79.8,0-144.4-64.7-144.4-144.4S320.2,255.6,400,255.6S544.4,320.2,544.4,400
	c0,38.3-15.2,75-42.3,102.1C475,529.2,438.3,544.4,400,544.4z"/>
<path class="st1" d="M544.4,207.4L544.4,207.4c0-26.6,21.6-48.1,48.1-48.1l0,0c26.6,0,48.1,21.6,48.1,48.1l0,0
	c0,26.6-21.6,48.1-48.1,48.1l0,0C566,255.6,544.4,234,544.4,207.4z"/>
<path class="st2" d="M568.5,207.4L568.5,207.4c0-13.3,10.8-24.1,24.1-24.1l0,0c13.3,0,24.1,10.8,24.1,24.1l0,0
	c0,13.3-10.8,24.1-24.1,24.1l0,0C579.3,231.5,568.5,220.7,568.5,207.4z"/>
</svg>
