<?xml version="1.0" encoding="utf-8"?>
<!-- Generator: Adobe Illustrator 24.0.1, SVG Export Plug-In . SVG Version: 6.00 Build 0)  -->
<svg version="1.1" id="Layer_1" xmlns="http://www.w3.org/2000/svg" xmlns:xlink="http://www.w3.org/1999/xlink" x="0px" y="0px"
	 viewBox="0 0 48 48" style="enable-background:new 0 0 48 48;" xml:space="preserve">
<path d="M5.2,45.1l-1.9-1.9l25.2-25.3c-0.9-2-1-3.9-0.6-5.9c0.5-2,1.6-3.8,3.3-5.5c1.6-1.6,3.6-2.7,6.1-3.3c2.5-0.6,4.5-0.1,6.2,1.5
	c1.6,1.6,2.1,3.7,1.5,6.1c-0.6,2.5-1.7,4.6-3.4,6.2c-1.6,1.7-3.4,2.7-5.4,3.2c-1.9,0.5-3.9,0.3-5.8-0.5l-4.5,4.5l18.9,18.9l-1.9,1.9
	L24,26.3C24,26.3,5.2,45.1,5.2,45.1z M12.8,24l-7-6.9c-1.9-1.9-2.9-4.1-3.1-6.7C2.7,7.9,3.4,5.5,5.1,3.4l14.2,14.2
	C19.3,17.5,12.8,24,12.8,24z"/>
</svg>
