<?xml version="1.0" encoding="utf-8"?>
<!-- Generator: Adobe Illustrator 24.0.1, SVG Export Plug-In . SVG Version: 6.00 Build 0)  -->
<svg version="1.1" id="Layer_1" xmlns="http://www.w3.org/2000/svg" xmlns:xlink="http://www.w3.org/1999/xlink" x="0px" y="0px"
	 viewBox="0 0 24 24" style="enable-background:new 0 0 24 24;" xml:space="preserve">
<style type="text/css">
	.st0{fill:#FFFFFF;}
</style>
<path class="st0" d="M9.5,20c2.2,0,4.1-0.8,5.7-2.3c1.6-1.6,2.3-3.4,2.3-5.7s-0.8-4.1-2.3-5.7S11.7,4,9.5,4H9C8.8,4,8.6,4,8.5,4
	c0.9,1.1,1.7,2.3,2.2,3.7c0.5,1.4,0.8,2.8,0.8,4.3s-0.3,2.9-0.8,4.3c-0.5,1.4-1.3,2.6-2.2,3.7c0.1,0,0.3,0,0.5,0H9.5z M9.5,22
	c-0.9,0-1.7-0.1-2.6-0.3s-1.6-0.6-2.4-1C6,19.8,7.3,18.5,8.2,17s1.3-3.2,1.3-5S9.1,8.5,8.2,7S6,4.3,4.5,3.3c0.8-0.5,1.6-0.8,2.4-1
	S8.6,2,9.5,2c1.4,0,2.7,0.3,3.9,0.8s2.3,1.2,3.2,2.1c0.9,0.9,1.6,2,2.1,3.2s0.8,2.5,0.8,3.9s-0.3,2.7-0.8,3.9s-1.2,2.3-2.1,3.2
	c-0.9,0.9-2,1.6-3.2,2.1S10.9,22,9.5,22z"/>
</svg>
