<?xml version="1.0" encoding="utf-8"?>
<!-- Generator: Adobe Illustrator 24.0.1, SVG Export Plug-In . SVG Version: 6.00 Build 0)  -->
<svg version="1.1" id="Layer_1" xmlns="http://www.w3.org/2000/svg" xmlns:xlink="http://www.w3.org/1999/xlink" x="0px" y="0px"
	 viewBox="0 0 48 48" style="enable-background:new 0 0 48 48;" xml:space="preserve">
<path d="M7.1,38.9V35H11V20.1c0-3,0.9-5.6,2.6-8c1.7-2.4,4-3.9,6.9-4.6V6.6c0-0.9,0.3-1.7,1-2.4c0.7-0.7,1.5-1,2.4-1
	c1,0,1.8,0.3,2.4,1c0.7,0.7,1,1.5,1,2.4v0.9c2.9,0.7,5.2,2.2,7,4.6c1.7,2.4,2.6,5.1,2.6,8V35h3.9v3.9C40.9,38.9,7.1,38.9,7.1,38.9z
	 M24,45.2c-1.2,0-2.2-0.4-3.1-1.3c-0.8-0.8-1.3-1.9-1.3-3.1h8.6c0,1.2-0.4,2.2-1.3,3.1C26.2,44.8,25.2,45.2,24,45.2z M14.9,35h18.3
	V20.1c0-2.5-0.9-4.7-2.7-6.5C28.7,11.8,26.5,11,24,11c-2.5,0-4.7,0.9-6.4,2.7c-1.8,1.8-2.7,3.9-2.7,6.4C14.9,20.1,14.9,35,14.9,35z"
	/>
</svg>
