<?xml version="1.0" encoding="utf-8"?>
<!-- Generator: Adobe Illustrator 24.0.1, SVG Export Plug-In . SVG Version: 6.00 Build 0)  -->
<svg version="1.1" id="Layer_1" xmlns="http://www.w3.org/2000/svg" xmlns:xlink="http://www.w3.org/1999/xlink" x="0px" y="0px"
	 viewBox="0 0 800 800" style="enable-background:new 0 0 800 800;" xml:space="preserve">
<style type="text/css">
	.st0{fill:#FFFFFF;}
</style>
<g>
	<g>
		<path class="st0" d="M773.6,524.8h-201v74c0,13.6-11,24.7-24.7,24.7c-13.6,0-24.7-11-24.7-24.7v-74H276.8v74
			c0,13.6-11,24.7-24.7,24.7c-13.6,0-24.7-11-24.7-24.7v-74h-201c-2.8,7.8-4.4,16.1-4.4,24.6v147.9c0,40.8,33.2,74,74,74H704
			c40.8,0,74-33.2,74-74V549.3C778,540.9,776.4,532.6,773.6,524.8z"/>
	</g>
</g>
<g>
	<g>
		<path class="st0" d="M439.2,309c12.5-8.3,29.3-4.9,37.7,7.5l100.7,151h192.7l-272-287.7c18.9,9.2,40.9,16,64.8,16
			c71.4,0,126.6-60.8,128.9-63.4c9.3-10.3,9.3-25.9,0-36.3c-2.3-2.6-57.6-63.4-128.9-63.4c-39,0-73,18-96.3,34.9
			c-14.8-21-39.1-34.9-66.7-34.9s-52,13.9-66.7,34.9c-23.3-16.9-57.4-34.9-96.3-34.9c-71.4,0-126.6,60.8-128.9,63.4
			c-9.3,10.3-9.3,25.9,0,36.3c2.3,2.6,57.6,63.4,128.9,63.4c23.9,0,45.9-6.8,64.8-16l-272,287.7h192.7l100.7-150.9
			c8.3-12.5,25.2-15.9,37.7-7.5c12.5,8.3,15.8,25.2,7.5,37.7l-80.5,120.7h224.6l-80.5-120.8C423.4,334.3,426.8,317.4,439.2,309z
			 M563.1,87.2c26.7,0,51.5,14.6,68.1,27.2c-16.6,12.6-41.4,27.2-68.1,27.2S511.6,127,495,114.4C511.6,101.6,536.4,87.2,563.1,87.2z
			 M236.9,141.5c-26.7,0-51.5-14.6-68.1-27.2c16.6-12.6,41.4-27.2,68.1-27.2c26.7,0,51.5,14.6,68.1,27.2
			C288.4,126.9,263.6,141.5,236.9,141.5z M400,141.5c-14.9,0-27.2-12.1-27.2-27.2S385,87.1,400,87.1s27.2,12.2,27.2,27.2
			S414.9,141.5,400,141.5z"/>
	</g>
</g>
</svg>
