<?xml version="1.0" encoding="utf-8"?>
<!-- Generator: Adobe Illustrator 24.0.1, SVG Export Plug-In . SVG Version: 6.00 Build 0)  -->
<svg version="1.1" id="Layer_1" xmlns="http://www.w3.org/2000/svg" xmlns:xlink="http://www.w3.org/1999/xlink" x="0px" y="0px"
	 viewBox="0 0 800 800" style="enable-background:new 0 0 800 800;" xml:space="preserve">
<style type="text/css">
	.st0{fill:#FFFFFF;}
</style>
<g>
	<g>
		<path class="st0" d="M787.4,529.3H579V606c0,14.1-11.4,25.6-25.6,25.6c-14.1,0-25.6-11.4-25.6-25.6v-76.7H272.2V606
			c0,14.1-11.4,25.6-25.6,25.6c-14.1,0-25.6-11.4-25.6-25.6v-76.7H12.6C9.7,537.4,8,546,8,554.8v153.4c0,42.3,34.4,76.7,76.7,76.7
			h630.6c42.3,0,76.7-34.4,76.7-76.7V554.8C792,546,790.3,537.4,787.4,529.3z"/>
	</g>
</g>
<g>
	<g>
		<path class="st0" d="M440.7,305.6c13-8.6,30.4-5.1,39.1,7.8L584.2,470H784L501.9,171.6c19.6,9.5,42.4,16.6,67.2,16.6
			c74,0,131.3-63.1,133.7-65.7c9.6-10.7,9.6-26.9,0-37.6c-2.4-2.7-59.7-65.7-133.7-65.7c-40.4,0-75.7,18.7-99.9,36.2
			c-15.3-21.8-40.6-36.2-69.2-36.2s-53.9,14.4-69.2,36.2c-24.2-17.5-59.5-36.2-99.9-36.2c-74,0-131.3,63.1-133.7,65.7
			c-9.6,10.7-9.6,26.9,0,37.6c2.4,2.7,59.7,65.7,133.7,65.7c24.8,0,47.6-7.1,67.2-16.6L16,470h199.8l104.4-156.5
			c8.6-13,26.1-16.5,39.1-7.8c13,8.6,16.4,26.1,7.8,39.1L283.6,470h232.9l-83.5-125.3C424.3,331.8,427.8,314.3,440.7,305.6z
			 M569.1,75.5c27.7,0,53.4,15.1,70.6,28.2c-17.2,13.1-42.9,28.2-70.6,28.2c-27.7,0-53.4-15.1-70.6-28.2
			C515.7,90.5,541.4,75.5,569.1,75.5z M230.9,131.8c-27.7,0-53.4-15.1-70.6-28.2c17.2-13.1,42.9-28.2,70.6-28.2s53.4,15.1,70.6,28.2
			C284.3,116.7,258.6,131.8,230.9,131.8z M400,131.8c-15.5,0-28.2-12.6-28.2-28.2s12.6-28.2,28.2-28.2s28.2,12.6,28.2,28.2
			S415.5,131.8,400,131.8z"/>
	</g>
</g>
</svg>
