<?xml version="1.0" encoding="utf-8"?>
<!-- Generator: Adobe Illustrator 24.0.1, SVG Export Plug-In . SVG Version: 6.00 Build 0)  -->
<svg version="1.1" id="Layer_1" xmlns="http://www.w3.org/2000/svg" xmlns:xlink="http://www.w3.org/1999/xlink" x="0px" y="0px"
	 viewBox="0 0 48 48" style="enable-background:new 0 0 48 48;" xml:space="preserve">
<style type="text/css">
	.st0{fill:#FFFFFF;}
</style>
<path class="st0" d="M26.9,25.6c-1.2,0-2.3-0.4-3.1-1.3c-0.8-0.8-1.3-1.9-1.3-3.1c0-1.2,0.4-2.3,1.3-3.1c0.8-0.8,1.9-1.3,3.1-1.3
	c1.2,0,2.3,0.4,3.1,1.3c0.8,0.8,1.3,1.9,1.3,3.1s-0.4,2.3-1.3,3.1C29.1,25.1,28.1,25.6,26.9,25.6z M11.9,33.9c-1,0-1.9-0.4-2.7-1.1
	c-0.7-0.7-1.1-1.6-1.1-2.7v-18c0-1,0.4-1.9,1.1-2.7c0.7-0.7,1.6-1.1,2.7-1.1h29.9c1,0,1.9,0.4,2.7,1.1c0.7,0.7,1.1,1.6,1.1,2.7v18
	c0,1-0.4,1.9-1.1,2.7c-0.7,0.7-1.6,1.1-2.7,1.1H11.9z M14.9,31.5h23.8c0-1.2,0.4-2.2,1.3-3.1c0.9-0.9,1.9-1.3,3.1-1.3V15.2
	c-1.2,0-2.2-0.4-3.1-1.3c-0.9-0.9-1.3-1.9-1.3-3.1H14.9c0,1.2-0.4,2.2-1.3,3.1c-0.9,0.9-1.9,1.3-3.1,1.3v11.9c1.2,0,2.2,0.4,3.1,1.3
	C14.5,29.3,14.9,30.3,14.9,31.5z M38.9,39.6H6.2c-1,0-1.9-0.4-2.7-1.1c-0.7-0.7-1.1-1.6-1.1-2.7V15h2.4v20.8c0,0.3,0.1,0.7,0.4,0.9
	c0.3,0.3,0.6,0.4,0.9,0.4h32.8C38.9,37.2,38.9,39.6,38.9,39.6z M11.9,31.5h-1.4V10.8h1.4c-0.4,0-0.7,0.1-1,0.4
	c-0.3,0.3-0.4,0.6-0.4,1v18c0,0.4,0.1,0.7,0.4,1C11.2,31.4,11.5,31.5,11.9,31.5z"/>
</svg>
