<?xml version="1.0" encoding="utf-8"?>
<!-- Generator: Adobe Illustrator 24.0.1, SVG Export Plug-In . SVG Version: 6.00 Build 0)  -->
<svg version="1.1" id="Layer_1" xmlns="http://www.w3.org/2000/svg" xmlns:xlink="http://www.w3.org/1999/xlink" x="0px" y="0px"
	 viewBox="0 0 48 48" style="enable-background:new 0 0 48 48;" xml:space="preserve">
<path d="M7.1,46.2c-1.5,0-2.8-0.5-3.8-1.5c-1-1-1.5-2.3-1.5-3.8V7.1c0-1.5,0.5-2.8,1.5-3.8c1-1,2.3-1.5,3.8-1.5h33.7
	c1.5,0,2.8,0.5,3.8,1.5c1,1,1.5,2.3,1.5,3.8v33.7c0,1.5-0.5,2.8-1.5,3.8c-1,1-2.3,1.5-3.8,1.5H7.1z M6.5,41.5h35V11.1h-35V41.5z
	 M24,35.3c-3.1,0-5.9-0.8-8.3-2.5c-2.4-1.7-4.2-3.8-5.3-6.5c1.1-2.7,2.9-4.8,5.3-6.5c2.4-1.7,5.2-2.5,8.3-2.5s5.9,0.8,8.3,2.5
	c2.4,1.7,4.2,3.8,5.3,6.5c-1.1,2.6-2.9,4.8-5.3,6.5C29.9,34.5,27.1,35.3,24,35.3z M24,32.5c2.3,0,4.3-0.6,6.2-1.7
	c1.9-1.1,3.4-2.6,4.4-4.5c-1.1-1.9-2.5-3.5-4.4-4.6c-1.9-1.1-4-1.7-6.2-1.7c-2.3,0-4.3,0.6-6.2,1.7c-1.9,1.1-3.3,2.7-4.4,4.6
	c1,1.9,2.5,3.4,4.4,4.5C19.7,32,21.8,32.5,24,32.5z M24,29.2c0.8,0,1.5-0.3,2-0.8c0.6-0.6,0.8-1.2,0.8-2s-0.3-1.5-0.8-2
	c-0.6-0.6-1.2-0.8-2-0.8s-1.5,0.3-2,0.8c-0.6,0.6-0.8,1.2-0.8,2s0.3,1.5,0.8,2C22.5,28.9,23.2,29.2,24,29.2z"/>
</svg>
