<?xml version="1.0" encoding="utf-8"?>
<!-- Generator: Adobe Illustrator 24.0.1, SVG Export Plug-In . SVG Version: 6.00 Build 0)  -->
<svg version="1.1" id="Layer_1" xmlns="http://www.w3.org/2000/svg" xmlns:xlink="http://www.w3.org/1999/xlink" x="0px" y="0px"
	 viewBox="0 0 800 800" style="enable-background:new 0 0 800 800;" xml:space="preserve">
<style type="text/css">
	.st0{fill-rule:evenodd;clip-rule:evenodd;fill:#FFFFFF;}
</style>
<path class="st0" d="M659.4,130.6c11.6-2.8,19.7-5.5,26.4-8.3c9.3-4,17-8.8,29.2-16.8c10.2-6.8,23.4-7.3,34.2-1.5
	c10.8,5.8,17.5,17.1,17.5,29.4c0,36-4.5,65.6-14.9,91.6c-8.7,21.9-21,39.6-35.7,55.8c-6.2,112.1-38.7,200.1-88.3,266.8
	C576.4,616.6,508,660.9,435.8,685.7c-71.9,24.7-147.9,30.2-215.9,21.9c-67.6-8.3-130.1-30.7-173.7-64.6
	c-11.9-9.3-16.1-25.4-10.2-39.3c5.9-13.9,20.4-22.1,35.4-20c42.9,6.1,84.1-3.6,118.1-17.6c-6.7-3.6-13-7.6-18.8-11.6
	c-30.9-21.4-55.9-50.5-67.1-72.9c-4.6-9.3-4.7-20.2-0.1-29.5c2.4-4.8,5.8-8.9,10-12.1C68.2,402.7,50,351.2,50,316.7
	c0-10.3,4.7-20,12.8-26.3c3.4-2.7,7.2-4.6,11.3-5.8c-3.4-9.9-6-19.9-8-29.6c-8.9-42.9-8.1-91.3,1.6-129.8
	c3.3-13.2,14.3-23,27.7-24.9c13.5-1.9,26.7,4.6,33.5,16.4C164.8,178.9,231,217,292.7,239.5c29,10.6,55.8,17.4,76,21.5
	c4.3-40.7,15.7-74.2,33.1-100.9c23-35.2,55.1-56,89.5-65.2C550.8,78.9,616.7,97.1,659.4,130.6z M358.3,326.9
	c-22.8-4.6-54.2-12.3-88.5-24.8c-45.2-16.5-97.8-42.3-141.8-82.3c0.8,7.4,1.9,14.6,3.4,21.7c7.4,35.7,21.1,55.7,33.5,61.9
	c15.2,7.6,22.3,25.4,16.4,41.4c-8,21.6-29,23.4-48.1,18.6c15.4,23,42.9,46,89,53.6c15.9,2.6,27.6,16.3,27.8,32.3
	c0.3,16.1-11,30.1-26.8,33.2l-29,5.8c4.4,3.9,9.2,7.6,14.4,11.2c23.2,16.1,46.6,23,66.7,18c15.1-3.8,30.8,3.4,37.8,17.2
	c7,13.9,3.6,30.7-8.4,40.7c-21.5,17.9-46.5,32.2-71.7,44.1c-11.8,5.6-25,11.1-39.3,16c11,2.3,22.5,4.3,34.3,5.7
	c59,7.3,124.7,2.4,186.1-18.8c61.2-21,117.8-58,160.1-114.9c42.3-56.8,71.8-135.5,75.7-242.3c0.3-8.4,3.8-16.4,9.7-22.3
	c15-15,27.4-32.2,33.5-52.6c-10.7,3.3-22.7,6.2-37,8.9c-10.8,2.1-22-1.4-29.8-9.2c-25.5-25.5-75.9-42.2-117.8-31
	c-19.7,5.3-37.6,16.8-51.1,37.4c-13.7,21-24.2,53.7-24.2,103.4c0,9.4-4,18.4-11,24.7C405.7,339.7,377.8,330.9,358.3,326.9z"/>
</svg>
